<svg xmlns="http://www.w3.org/2000/svg" version="1.1" xmlns:xlink="http://www.w3.org/1999/xlink"
  xmlns:svgjs="http://svgjs.dev/svgjs" width="1920" height="1080" preserveAspectRatio="none"
  viewBox="0 0 1920 1080">
  <g mask="url(&quot;#SvgjsMask2998&quot;)" fill="none">
    <rect width="1920" height="1080" x="0" y="0" fill="url(&quot;#SvgjsLinearGradient2999&quot;)"></rect>
    <g mask="url(&quot;#SvgjsMask3000&quot;)">
      <path d="M775 975L1725 25" stroke-width="8.33" stroke="rgba(0, 0, 0, 1)"></path>
      <path
        d="M762.5 975 a12.5 12.5 0 1 0 25 0 a12.5 12.5 0 1 0 -25 0zM1712.5 25 a12.5 12.5 0 1 0 25 0 a12.5 12.5 0 1 0 -25 0z"
        fill="rgba(0, 0, 0, 1)"></path>
      <path d="M875 125L875 25" stroke-width="8.33" stroke="rgba(0, 0, 0, 1)"></path>
      <path
        d="M862.5 125 a12.5 12.5 0 1 0 25 0 a12.5 12.5 0 1 0 -25 0zM862.5 25 a12.5 12.5 0 1 0 25 0 a12.5 12.5 0 1 0 -25 0z"
        fill="rgba(0, 0, 0, 1)"></path>
      <path d="M625 1025L1575 1025" stroke-width="8.33" stroke="rgba(0, 0, 0, 1)"></path>
      <path
        d="M612.5 1025 a12.5 12.5 0 1 0 25 0 a12.5 12.5 0 1 0 -25 0zM1562.5 1025 a12.5 12.5 0 1 0 25 0 a12.5 12.5 0 1 0 -25 0z"
        fill="rgba(0, 0, 0, 1)"></path>
      <path d="M625 75L25 675L25 925L125 1025" stroke-width="8.33" stroke="rgba(0, 0, 0, 1)"></path>
      <path
        d="M612.5 75 a12.5 12.5 0 1 0 25 0 a12.5 12.5 0 1 0 -25 0zM112.5 1025 a12.5 12.5 0 1 0 25 0 a12.5 12.5 0 1 0 -25 0z"
        fill="rgba(0, 0, 0, 1)"></path>
      <path d="M675 375L375 675L75 675" stroke-width="8.33" stroke="rgba(0, 0, 0, 1)"></path>
      <path
        d="M662.5 375 a12.5 12.5 0 1 0 25 0 a12.5 12.5 0 1 0 -25 0zM62.5 675 a12.5 12.5 0 1 0 25 0 a12.5 12.5 0 1 0 -25 0z"
        fill="rgba(0, 0, 0, 1)"></path>
      <path d="M1825 475L1825 325L1675 175L1675 125L1775 25L1925 25" stroke-width="8.33"
        stroke="rgba(0, 0, 0, 1)"></path>
      <path
        d="M1812.5 475 a12.5 12.5 0 1 0 25 0 a12.5 12.5 0 1 0 -25 0zM1912.5 25 a12.5 12.5 0 1 0 25 0 a12.5 12.5 0 1 0 -25 0z"
        fill="rgba(0, 0, 0, 1)"></path>
      <path d="M1125 975L825 975" stroke-width="8.33" stroke="rgba(0, 0, 0, 1)"></path>
      <path
        d="M1112.5 975 a12.5 12.5 0 1 0 25 0 a12.5 12.5 0 1 0 -25 0zM812.5 975 a12.5 12.5 0 1 0 25 0 a12.5 12.5 0 1 0 -25 0z"
        fill="rgba(0, 0, 0, 1)"></path>
      <path d="M1525 125L1425 25L925 25" stroke-width="8.33" stroke="rgba(0, 0, 0, 1)"></path>
      <path
        d="M1512.5 125 a12.5 12.5 0 1 0 25 0 a12.5 12.5 0 1 0 -25 0zM912.5 25 a12.5 12.5 0 1 0 25 0 a12.5 12.5 0 1 0 -25 0z"
        fill="rgba(0, 0, 0, 1)"></path>
      <path d="M225 1075L425 1075L675 825L825 825L1175 475" stroke-width="8.33"
        stroke="rgba(0, 0, 0, 1)"></path>
      <path
        d="M212.5 1075 a12.5 12.5 0 1 0 25 0 a12.5 12.5 0 1 0 -25 0zM1162.5 475 a12.5 12.5 0 1 0 25 0 a12.5 12.5 0 1 0 -25 0z"
        fill="rgba(0, 0, 0, 1)"></path>
      <path d="M1625 675L1375 425" stroke-width="8.33" stroke="rgba(0, 0, 0, 1)"></path>
      <path
        d="M1612.5 675 a12.5 12.5 0 1 0 25 0 a12.5 12.5 0 1 0 -25 0zM1362.5 425 a12.5 12.5 0 1 0 25 0 a12.5 12.5 0 1 0 -25 0z"
        fill="rgba(0, 0, 0, 1)"></path>
      <path d="M25 1025L75 1075L175 1075L425 825L425 675L825 275" stroke-width="8.33"
        stroke="rgba(0, 0, 0, 1)"></path>
      <path
        d="M12.5 1025 a12.5 12.5 0 1 0 25 0 a12.5 12.5 0 1 0 -25 0zM812.5 275 a12.5 12.5 0 1 0 25 0 a12.5 12.5 0 1 0 -25 0z"
        fill="rgba(0, 0, 0, 1)"></path>
      <path d="M1625 375L1575 375L1525 325L1475 325L1425 375L1425 425L1925 925L1925 1075"
        stroke-width="8.33" stroke="rgba(0, 0, 0, 1)"></path>
      <path
        d="M1612.5 375 a12.5 12.5 0 1 0 25 0 a12.5 12.5 0 1 0 -25 0zM1912.5 1075 a12.5 12.5 0 1 0 25 0 a12.5 12.5 0 1 0 -25 0z"
        fill="rgba(0, 0, 0, 1)"></path>
      <path d="M1325 175L1325 75" stroke-width="8.33" stroke="rgba(0, 0, 0, 1)"></path>
      <path
        d="M1312.5 175 a12.5 12.5 0 1 0 25 0 a12.5 12.5 0 1 0 -25 0zM1312.5 75 a12.5 12.5 0 1 0 25 0 a12.5 12.5 0 1 0 -25 0z"
        fill="rgba(0, 0, 0, 1)"></path>
      <path d="M475 125L475 175L25 625" stroke-width="8.33" stroke="rgba(0, 0, 0, 1)"></path>
      <path
        d="M462.5 125 a12.5 12.5 0 1 0 25 0 a12.5 12.5 0 1 0 -25 0zM12.5 625 a12.5 12.5 0 1 0 25 0 a12.5 12.5 0 1 0 -25 0z"
        fill="rgba(0, 0, 0, 1)"></path>
      <path d="M1475 775L1725 775L1875 925L1875 1075" stroke-width="8.33" stroke="rgba(0, 0, 0, 1)"></path>
      <path
        d="M1462.5 775 a12.5 12.5 0 1 0 25 0 a12.5 12.5 0 1 0 -25 0zM1862.5 1075 a12.5 12.5 0 1 0 25 0 a12.5 12.5 0 1 0 -25 0z"
        fill="rgba(0, 0, 0, 1)"></path>
      <path d="M1675 1025L1625 1025L1575 1075L725 1075" stroke-width="8.33"
        stroke="rgba(0, 0, 0, 1)"></path>
      <path
        d="M1662.5 1025 a12.5 12.5 0 1 0 25 0 a12.5 12.5 0 1 0 -25 0zM712.5 1075 a12.5 12.5 0 1 0 25 0 a12.5 12.5 0 1 0 -25 0z"
        fill="rgba(0, 0, 0, 1)"></path>
      <path d="M425 525L625 325L625 125L725 25L825 25" stroke-width="8.33" stroke="rgba(0, 0, 0, 1)"></path>
      <path
        d="M412.5 525 a12.5 12.5 0 1 0 25 0 a12.5 12.5 0 1 0 -25 0zM812.5 25 a12.5 12.5 0 1 0 25 0 a12.5 12.5 0 1 0 -25 0z"
        fill="rgba(0, 0, 0, 1)"></path>
      <path d="M875 275L1075 475L1075 525L825 775L475 775" stroke-width="8.33"
        stroke="rgba(0, 0, 0, 1)"></path>
      <path
        d="M862.5 275 a12.5 12.5 0 1 0 25 0 a12.5 12.5 0 1 0 -25 0zM462.5 775 a12.5 12.5 0 1 0 25 0 a12.5 12.5 0 1 0 -25 0z"
        fill="rgba(0, 0, 0, 1)"></path>
      <path d="M1325 675L1225 575" stroke-width="8.33" stroke="rgba(0, 0, 0, 1)"></path>
      <path
        d="M1312.5 675 a12.5 12.5 0 1 0 25 0 a12.5 12.5 0 1 0 -25 0zM1212.5 575 a12.5 12.5 0 1 0 25 0 a12.5 12.5 0 1 0 -25 0z"
        fill="rgba(0, 0, 0, 1)"></path>
      <path d="M225 525L325 625L375 625L425 575" stroke-width="8.33" stroke="rgba(0, 0, 0, 1)"></path>
      <path
        d="M212.5 525 a12.5 12.5 0 1 0 25 0 a12.5 12.5 0 1 0 -25 0zM412.5 575 a12.5 12.5 0 1 0 25 0 a12.5 12.5 0 1 0 -25 0z"
        fill="rgba(0, 0, 0, 1)"></path>
      <path d="M1375 325L1525 175" stroke-width="8.33" stroke="rgba(0, 0, 0, 1)"></path>
      <path
        d="M1362.5 325 a12.5 12.5 0 1 0 25 0 a12.5 12.5 0 1 0 -25 0zM1512.5 175 a12.5 12.5 0 1 0 25 0 a12.5 12.5 0 1 0 -25 0z"
        fill="rgba(0, 0, 0, 1)"></path>
      <path d="M1675 325L1725 375L1725 625L1875 775L1875 825L1925 875" stroke-width="8.33"
        stroke="rgba(0, 0, 0, 1)"></path>
      <path
        d="M1662.5 325 a12.5 12.5 0 1 0 25 0 a12.5 12.5 0 1 0 -25 0zM1912.5 875 a12.5 12.5 0 1 0 25 0 a12.5 12.5 0 1 0 -25 0z"
        fill="rgba(0, 0, 0, 1)"></path>
      <path d="M675 475L475 675L475 725" stroke-width="8.33" stroke="rgba(0, 0, 0, 1)"></path>
      <path
        d="M662.5 475 a12.5 12.5 0 1 0 25 0 a12.5 12.5 0 1 0 -25 0zM462.5 725 a12.5 12.5 0 1 0 25 0 a12.5 12.5 0 1 0 -25 0z"
        fill="rgba(0, 0, 0, 1)"></path>
      <path d="M325 475L375 525L375 575" stroke-width="8.33" stroke="rgba(0, 0, 0, 1)"></path>
      <path
        d="M312.5 475 a12.5 12.5 0 1 0 25 0 a12.5 12.5 0 1 0 -25 0zM362.5 575 a12.5 12.5 0 1 0 25 0 a12.5 12.5 0 1 0 -25 0z"
        fill="rgba(0, 0, 0, 1)"></path>
      <path d="M1625 925L1575 875L925 875L875 925" stroke-width="8.33" stroke="rgba(0, 0, 0, 1)"></path>
      <path
        d="M1612.5 925 a12.5 12.5 0 1 0 25 0 a12.5 12.5 0 1 0 -25 0zM862.5 925 a12.5 12.5 0 1 0 25 0 a12.5 12.5 0 1 0 -25 0z"
        fill="rgba(0, 0, 0, 1)"></path>
      <path d="M1775 975L1775 1075" stroke-width="8.33" stroke="rgba(0, 0, 0, 1)"></path>
      <path
        d="M1762.5 975 a12.5 12.5 0 1 0 25 0 a12.5 12.5 0 1 0 -25 0zM1762.5 1075 a12.5 12.5 0 1 0 25 0 a12.5 12.5 0 1 0 -25 0z"
        fill="rgba(0, 0, 0, 1)"></path>
      <path d="M1275 225L1425 225L1475 175L1475 125L1425 75L1375 75" stroke-width="8.33"
        stroke="rgba(0, 0, 0, 1)"></path>
      <path
        d="M1262.5 225 a12.5 12.5 0 1 0 25 0 a12.5 12.5 0 1 0 -25 0zM1362.5 75 a12.5 12.5 0 1 0 25 0 a12.5 12.5 0 1 0 -25 0z"
        fill="rgba(0, 0, 0, 1)"></path>
      <path d="M1925 275L1825 275L1725 175L1725 125L1775 75L1875 75L1925 125L1925 225"
        stroke-width="8.33" stroke="rgba(0, 0, 0, 1)"></path>
      <path
        d="M1912.5 275 a12.5 12.5 0 1 0 25 0 a12.5 12.5 0 1 0 -25 0zM1912.5 225 a12.5 12.5 0 1 0 25 0 a12.5 12.5 0 1 0 -25 0z"
        fill="rgba(0, 0, 0, 1)"></path>
      <path d="M475 25L25 475L25 575" stroke-width="8.33" stroke="rgba(0, 0, 0, 1)"></path>
      <path
        d="M462.5 25 a12.5 12.5 0 1 0 25 0 a12.5 12.5 0 1 0 -25 0zM12.5 575 a12.5 12.5 0 1 0 25 0 a12.5 12.5 0 1 0 -25 0z"
        fill="rgba(0, 0, 0, 1)"></path>
      <path d="M825 475L925 375" stroke-width="8.33" stroke="rgba(0, 0, 0, 1)"></path>
      <path
        d="M812.5 475 a12.5 12.5 0 1 0 25 0 a12.5 12.5 0 1 0 -25 0zM912.5 375 a12.5 12.5 0 1 0 25 0 a12.5 12.5 0 1 0 -25 0z"
        fill="rgba(0, 0, 0, 1)"></path>
      <path d="M275 925L175 1025" stroke-width="8.33" stroke="rgba(0, 0, 0, 1)"></path>
      <path
        d="M262.5 925 a12.5 12.5 0 1 0 25 0 a12.5 12.5 0 1 0 -25 0zM162.5 1025 a12.5 12.5 0 1 0 25 0 a12.5 12.5 0 1 0 -25 0z"
        fill="rgba(0, 0, 0, 1)"></path>
      <path d="M1175 975L1125 925L925 925" stroke-width="8.33" stroke="rgba(0, 0, 0, 1)"></path>
      <path
        d="M1162.5 975 a12.5 12.5 0 1 0 25 0 a12.5 12.5 0 1 0 -25 0zM912.5 925 a12.5 12.5 0 1 0 25 0 a12.5 12.5 0 1 0 -25 0z"
        fill="rgba(0, 0, 0, 1)"></path>
      <path d="M1225 125L1025 325L975 325L725 75" stroke-width="8.33" stroke="rgba(0, 0, 0, 1)"></path>
      <path
        d="M1212.5 125 a12.5 12.5 0 1 0 25 0 a12.5 12.5 0 1 0 -25 0zM712.5 75 a12.5 12.5 0 1 0 25 0 a12.5 12.5 0 1 0 -25 0z"
        fill="rgba(0, 0, 0, 1)"></path>
      <path d="M1125 275L1275 425" stroke-width="8.33" stroke="rgba(0, 0, 0, 1)"></path>
      <path
        d="M1112.5 275 a12.5 12.5 0 1 0 25 0 a12.5 12.5 0 1 0 -25 0zM1262.5 425 a12.5 12.5 0 1 0 25 0 a12.5 12.5 0 1 0 -25 0z"
        fill="rgba(0, 0, 0, 1)"></path>
      <path d="M775 375L825 325L875 325" stroke-width="8.33" stroke="rgba(0, 0, 0, 1)"></path>
      <path
        d="M762.5 375 a12.5 12.5 0 1 0 25 0 a12.5 12.5 0 1 0 -25 0zM862.5 325 a12.5 12.5 0 1 0 25 0 a12.5 12.5 0 1 0 -25 0z"
        fill="rgba(0, 0, 0, 1)"></path>
      <path d="M1525 925L1475 975L1225 975L1175 925" stroke-width="8.33" stroke="rgba(0, 0, 0, 1)"></path>
      <path
        d="M1512.5 925 a12.5 12.5 0 1 0 25 0 a12.5 12.5 0 1 0 -25 0zM1162.5 925 a12.5 12.5 0 1 0 25 0 a12.5 12.5 0 1 0 -25 0z"
        fill="rgba(0, 0, 0, 1)"></path>
      <path d="M325 75L375 25L425 25" stroke-width="8.33" stroke="rgba(0, 0, 0, 1)"></path>
      <path
        d="M312.5 75 a12.5 12.5 0 1 0 25 0 a12.5 12.5 0 1 0 -25 0zM412.5 25 a12.5 12.5 0 1 0 25 0 a12.5 12.5 0 1 0 -25 0z"
        fill="rgba(0, 0, 0, 1)"></path>
      <path d="M1475 625L1275 825L975 825" stroke-width="8.33" stroke="rgba(0, 0, 0, 1)"></path>
      <path
        d="M1462.5 625 a12.5 12.5 0 1 0 25 0 a12.5 12.5 0 1 0 -25 0zM962.5 825 a12.5 12.5 0 1 0 25 0 a12.5 12.5 0 1 0 -25 0z"
        fill="rgba(0, 0, 0, 1)"></path>
      <path d="M1575 425L1525 375L1475 375" stroke-width="8.33" stroke="rgba(0, 0, 0, 1)"></path>
      <path
        d="M1562.5 425 a12.5 12.5 0 1 0 25 0 a12.5 12.5 0 1 0 -25 0zM1462.5 375 a12.5 12.5 0 1 0 25 0 a12.5 12.5 0 1 0 -25 0z"
        fill="rgba(0, 0, 0, 1)"></path>
      <path d="M725 175L775 175L825 225" stroke-width="8.33" stroke="rgba(0, 0, 0, 1)"></path>
      <path
        d="M712.5 175 a12.5 12.5 0 1 0 25 0 a12.5 12.5 0 1 0 -25 0zM812.5 225 a12.5 12.5 0 1 0 25 0 a12.5 12.5 0 1 0 -25 0z"
        fill="rgba(0, 0, 0, 1)"></path>
      <path d="M1675 525L1675 375" stroke-width="8.33" stroke="rgba(0, 0, 0, 1)"></path>
      <path
        d="M1662.5 525 a12.5 12.5 0 1 0 25 0 a12.5 12.5 0 1 0 -25 0zM1662.5 375 a12.5 12.5 0 1 0 25 0 a12.5 12.5 0 1 0 -25 0z"
        fill="rgba(0, 0, 0, 1)"></path>
      <path d="M25 175L75 125L225 125L275 175" stroke-width="8.33" stroke="rgba(0, 0, 0, 1)"></path>
      <path
        d="M12.5 175 a12.5 12.5 0 1 0 25 0 a12.5 12.5 0 1 0 -25 0zM262.5 175 a12.5 12.5 0 1 0 25 0 a12.5 12.5 0 1 0 -25 0z"
        fill="rgba(0, 0, 0, 1)"></path>
      <path d="M325 225L325 275L175 425L125 425L75 475L75 525" stroke-width="8.33"
        stroke="rgba(0, 0, 0, 1)"></path>
      <path
        d="M312.5 225 a12.5 12.5 0 1 0 25 0 a12.5 12.5 0 1 0 -25 0zM62.5 525 a12.5 12.5 0 1 0 25 0 a12.5 12.5 0 1 0 -25 0z"
        fill="rgba(0, 0, 0, 1)"></path>
      <path d="M725 675L525 675" stroke-width="8.33" stroke="rgba(0, 0, 0, 1)"></path>
      <path
        d="M712.5 675 a12.5 12.5 0 1 0 25 0 a12.5 12.5 0 1 0 -25 0zM512.5 675 a12.5 12.5 0 1 0 25 0 a12.5 12.5 0 1 0 -25 0z"
        fill="rgba(0, 0, 0, 1)"></path>
      <path d="M1175 225L1275 125L1275 75" stroke-width="8.33" stroke="rgba(0, 0, 0, 1)"></path>
      <path
        d="M1162.5 225 a12.5 12.5 0 1 0 25 0 a12.5 12.5 0 1 0 -25 0zM1262.5 75 a12.5 12.5 0 1 0 25 0 a12.5 12.5 0 1 0 -25 0z"
        fill="rgba(0, 0, 0, 1)"></path>
      <path d="M475 325L475 425L425 475L375 475L325 425" stroke-width="8.33"
        stroke="rgba(0, 0, 0, 1)"></path>
      <path
        d="M462.5 325 a12.5 12.5 0 1 0 25 0 a12.5 12.5 0 1 0 -25 0zM312.5 425 a12.5 12.5 0 1 0 25 0 a12.5 12.5 0 1 0 -25 0z"
        fill="rgba(0, 0, 0, 1)"></path>
      <path d="M75 25L325 25" stroke-width="8.33" stroke="rgba(0, 0, 0, 1)"></path>
      <path
        d="M62.5 25 a12.5 12.5 0 1 0 25 0 a12.5 12.5 0 1 0 -25 0zM312.5 25 a12.5 12.5 0 1 0 25 0 a12.5 12.5 0 1 0 -25 0z"
        fill="rgba(0, 0, 0, 1)"></path>
      <path d="M775 575L775 725" stroke-width="8.33" stroke="rgba(0, 0, 0, 1)"></path>
      <path
        d="M762.5 575 a12.5 12.5 0 1 0 25 0 a12.5 12.5 0 1 0 -25 0zM762.5 725 a12.5 12.5 0 1 0 25 0 a12.5 12.5 0 1 0 -25 0z"
        fill="rgba(0, 0, 0, 1)"></path>
      <path d="M1325 725L1225 625L1175 625L1025 775" stroke-width="8.33" stroke="rgba(0, 0, 0, 1)"></path>
      <path
        d="M1312.5 725 a12.5 12.5 0 1 0 25 0 a12.5 12.5 0 1 0 -25 0zM1012.5 775 a12.5 12.5 0 1 0 25 0 a12.5 12.5 0 1 0 -25 0z"
        fill="rgba(0, 0, 0, 1)"></path>
      <path d="M225 825L325 725L375 725" stroke-width="8.33" stroke="rgba(0, 0, 0, 1)"></path>
      <path
        d="M212.5 825 a12.5 12.5 0 1 0 25 0 a12.5 12.5 0 1 0 -25 0zM362.5 725 a12.5 12.5 0 1 0 25 0 a12.5 12.5 0 1 0 -25 0z"
        fill="rgba(0, 0, 0, 1)"></path>
      <path d="M1775 175L1825 225L1875 225" stroke-width="8.33" stroke="rgba(0, 0, 0, 1)"></path>
      <path
        d="M1762.5 175 a12.5 12.5 0 1 0 25 0 a12.5 12.5 0 1 0 -25 0zM1862.5 225 a12.5 12.5 0 1 0 25 0 a12.5 12.5 0 1 0 -25 0z"
        fill="rgba(0, 0, 0, 1)"></path>
      <path d="M1025 175L975 225L925 225" stroke-width="8.33" stroke="rgba(0, 0, 0, 1)"></path>
      <path
        d="M1012.5 175 a12.5 12.5 0 1 0 25 0 a12.5 12.5 0 1 0 -25 0zM912.5 225 a12.5 12.5 0 1 0 25 0 a12.5 12.5 0 1 0 -25 0z"
        fill="rgba(0, 0, 0, 1)"></path>
      <path d="M575 825L375 1025L275 1025" stroke-width="8.33" stroke="rgba(0, 0, 0, 1)"></path>
      <path
        d="M562.5 825 a12.5 12.5 0 1 0 25 0 a12.5 12.5 0 1 0 -25 0zM262.5 1025 a12.5 12.5 0 1 0 25 0 a12.5 12.5 0 1 0 -25 0z"
        fill="rgba(0, 0, 0, 1)"></path>
      <path d="M1175 275L1275 375L1325 375" stroke-width="8.33" stroke="rgba(0, 0, 0, 1)"></path>
      <path
        d="M1162.5 275 a12.5 12.5 0 1 0 25 0 a12.5 12.5 0 1 0 -25 0zM1312.5 375 a12.5 12.5 0 1 0 25 0 a12.5 12.5 0 1 0 -25 0z"
        fill="rgba(0, 0, 0, 1)"></path>
      <path d="M1075 75L975 175" stroke-width="8.33" stroke="rgba(0, 0, 0, 1)"></path>
      <path
        d="M1062.5 75 a12.5 12.5 0 1 0 25 0 a12.5 12.5 0 1 0 -25 0zM962.5 175 a12.5 12.5 0 1 0 25 0 a12.5 12.5 0 1 0 -25 0z"
        fill="rgba(0, 0, 0, 1)"></path>
      <path d="M1275 325L1275 275L1225 225" stroke-width="8.33" stroke="rgba(0, 0, 0, 1)"></path>
      <path
        d="M1262.5 325 a12.5 12.5 0 1 0 25 0 a12.5 12.5 0 1 0 -25 0zM1212.5 225 a12.5 12.5 0 1 0 25 0 a12.5 12.5 0 1 0 -25 0z"
        fill="rgba(0, 0, 0, 1)"></path>
      <path d="M975 425L975 575L825 725" stroke-width="8.33" stroke="rgba(0, 0, 0, 1)"></path>
      <path
        d="M962.5 425 a12.5 12.5 0 1 0 25 0 a12.5 12.5 0 1 0 -25 0zM812.5 725 a12.5 12.5 0 1 0 25 0 a12.5 12.5 0 1 0 -25 0z"
        fill="rgba(0, 0, 0, 1)"></path>
      <path d="M475 1075L675 875L825 875" stroke-width="8.33" stroke="rgba(0, 0, 0, 1)"></path>
      <path
        d="M462.5 1075 a12.5 12.5 0 1 0 25 0 a12.5 12.5 0 1 0 -25 0zM812.5 875 a12.5 12.5 0 1 0 25 0 a12.5 12.5 0 1 0 -25 0z"
        fill="rgba(0, 0, 0, 1)"></path>
      <path d="M1125 325L1225 425" stroke-width="8.33" stroke="rgba(0, 0, 0, 1)"></path>
      <path
        d="M1112.5 325 a12.5 12.5 0 1 0 25 0 a12.5 12.5 0 1 0 -25 0zM1212.5 425 a12.5 12.5 0 1 0 25 0 a12.5 12.5 0 1 0 -25 0z"
        fill="rgba(0, 0, 0, 1)"></path>
      <path d="M375 825L275 825L125 975" stroke-width="8.33" stroke="rgba(0, 0, 0, 1)"></path>
      <path
        d="M362.5 825 a12.5 12.5 0 1 0 25 0 a12.5 12.5 0 1 0 -25 0zM112.5 975 a12.5 12.5 0 1 0 25 0 a12.5 12.5 0 1 0 -25 0z"
        fill="rgba(0, 0, 0, 1)"></path>
      <path d="M225 225L25 425" stroke-width="8.33" stroke="rgba(0, 0, 0, 1)"></path>
      <path
        d="M212.5 225 a12.5 12.5 0 1 0 25 0 a12.5 12.5 0 1 0 -25 0zM12.5 425 a12.5 12.5 0 1 0 25 0 a12.5 12.5 0 1 0 -25 0z"
        fill="rgba(0, 0, 0, 1)"></path>
      <path d="M1425 825L1725 825L1775 875" stroke-width="8.33" stroke="rgba(0, 0, 0, 1)"></path>
      <path
        d="M1412.5 825 a12.5 12.5 0 1 0 25 0 a12.5 12.5 0 1 0 -25 0zM1762.5 875 a12.5 12.5 0 1 0 25 0 a12.5 12.5 0 1 0 -25 0z"
        fill="rgba(0, 0, 0, 1)"></path>
      <path d="M675 525L575 625" stroke-width="8.33" stroke="rgba(0, 0, 0, 1)"></path>
      <path
        d="M662.5 525 a12.5 12.5 0 1 0 25 0 a12.5 12.5 0 1 0 -25 0zM562.5 625 a12.5 12.5 0 1 0 25 0 a12.5 12.5 0 1 0 -25 0z"
        fill="rgba(0, 0, 0, 1)"></path>
      <path d="M1725 1025L1725 875" stroke-width="8.33" stroke="rgba(0, 0, 0, 1)"></path>
      <path
        d="M1712.5 1025 a12.5 12.5 0 1 0 25 0 a12.5 12.5 0 1 0 -25 0zM1712.5 875 a12.5 12.5 0 1 0 25 0 a12.5 12.5 0 1 0 -25 0z"
        fill="rgba(0, 0, 0, 1)"></path>
      <path d="M175 875L75 775L75 725" stroke-width="8.33" stroke="rgba(0, 0, 0, 1)"></path>
      <path
        d="M162.5 875 a12.5 12.5 0 1 0 25 0 a12.5 12.5 0 1 0 -25 0zM62.5 725 a12.5 12.5 0 1 0 25 0 a12.5 12.5 0 1 0 -25 0z"
        fill="rgba(0, 0, 0, 1)"></path>
      <path d="M1925 675L1925 325" stroke-width="8.33" stroke="rgba(0, 0, 0, 1)"></path>
      <path
        d="M1912.5 675 a12.5 12.5 0 1 0 25 0 a12.5 12.5 0 1 0 -25 0zM1912.5 325 a12.5 12.5 0 1 0 25 0 a12.5 12.5 0 1 0 -25 0z"
        fill="rgba(0, 0, 0, 1)"></path>
      <path d="M1575 25L1575 125" stroke-width="8.33" stroke="rgba(0, 0, 0, 1)"></path>
      <path
        d="M1562.5 25 a12.5 12.5 0 1 0 25 0 a12.5 12.5 0 1 0 -25 0zM1562.5 125 a12.5 12.5 0 1 0 25 0 a12.5 12.5 0 1 0 -25 0z"
        fill="rgba(0, 0, 0, 1)"></path>
      <path d="M175 775L225 725L275 725" stroke-width="8.33" stroke="rgba(0, 0, 0, 1)"></path>
      <path
        d="M162.5 775 a12.5 12.5 0 1 0 25 0 a12.5 12.5 0 1 0 -25 0zM262.5 725 a12.5 12.5 0 1 0 25 0 a12.5 12.5 0 1 0 -25 0z"
        fill="rgba(0, 0, 0, 1)"></path>
      <path d="M1675 275L1625 325L1575 325L1525 275" stroke-width="8.33" stroke="rgba(0, 0, 0, 1)"></path>
      <path
        d="M1662.5 275 a12.5 12.5 0 1 0 25 0 a12.5 12.5 0 1 0 -25 0zM1512.5 275 a12.5 12.5 0 1 0 25 0 a12.5 12.5 0 1 0 -25 0z"
        fill="rgba(0, 0, 0, 1)"></path>
      <path d="M925 475L875 475L825 525L825 675" stroke-width="8.33" stroke="rgba(0, 0, 0, 1)"></path>
      <path
        d="M912.5 475 a12.5 12.5 0 1 0 25 0 a12.5 12.5 0 1 0 -25 0zM812.5 675 a12.5 12.5 0 1 0 25 0 a12.5 12.5 0 1 0 -25 0z"
        fill="rgba(0, 0, 0, 1)"></path>
      <path d="M1875 675L1775 575L1775 475" stroke-width="8.33" stroke="rgba(0, 0, 0, 1)"></path>
      <path
        d="M1862.5 675 a12.5 12.5 0 1 0 25 0 a12.5 12.5 0 1 0 -25 0zM1762.5 475 a12.5 12.5 0 1 0 25 0 a12.5 12.5 0 1 0 -25 0z"
        fill="rgba(0, 0, 0, 1)"></path>
      <path d="M1125 125L1125 175L1025 275L975 275" stroke-width="8.33" stroke="rgba(0, 0, 0, 1)"></path>
      <path
        d="M1112.5 125 a12.5 12.5 0 1 0 25 0 a12.5 12.5 0 1 0 -25 0zM962.5 275 a12.5 12.5 0 1 0 25 0 a12.5 12.5 0 1 0 -25 0z"
        fill="rgba(0, 0, 0, 1)"></path>
      <path d="M525 825L425 925" stroke-width="8.33" stroke="rgba(0, 0, 0, 1)"></path>
      <path
        d="M512.5 825 a12.5 12.5 0 1 0 25 0 a12.5 12.5 0 1 0 -25 0zM412.5 925 a12.5 12.5 0 1 0 25 0 a12.5 12.5 0 1 0 -25 0z"
        fill="rgba(0, 0, 0, 1)"></path>
      <path d="M875 625L925 575L925 525" stroke-width="8.33" stroke="rgba(0, 0, 0, 1)"></path>
      <path
        d="M862.5 625 a12.5 12.5 0 1 0 25 0 a12.5 12.5 0 1 0 -25 0zM912.5 525 a12.5 12.5 0 1 0 25 0 a12.5 12.5 0 1 0 -25 0z"
        fill="rgba(0, 0, 0, 1)"></path>
      <path d="M1375 825L1525 675L1575 675" stroke-width="8.33" stroke="rgba(0, 0, 0, 1)"></path>
      <path
        d="M1362.5 825 a12.5 12.5 0 1 0 25 0 a12.5 12.5 0 1 0 -25 0zM1562.5 675 a12.5 12.5 0 1 0 25 0 a12.5 12.5 0 1 0 -25 0z"
        fill="rgba(0, 0, 0, 1)"></path>
      <path d="M125 275L25 375" stroke-width="8.33" stroke="rgba(0, 0, 0, 1)"></path>
      <path
        d="M112.5 275 a12.5 12.5 0 1 0 25 0 a12.5 12.5 0 1 0 -25 0zM12.5 375 a12.5 12.5 0 1 0 25 0 a12.5 12.5 0 1 0 -25 0z"
        fill="rgba(0, 0, 0, 1)"></path>
      <path d="M1925 725L1925 825" stroke-width="8.33" stroke="rgba(0, 0, 0, 1)"></path>
      <path
        d="M1912.5 725 a12.5 12.5 0 1 0 25 0 a12.5 12.5 0 1 0 -25 0zM1912.5 825 a12.5 12.5 0 1 0 25 0 a12.5 12.5 0 1 0 -25 0z"
        fill="rgba(0, 0, 0, 1)"></path>
      <path d="M1175 675L1075 775" stroke-width="8.33" stroke="rgba(0, 0, 0, 1)"></path>
      <path
        d="M1162.5 675 a12.5 12.5 0 1 0 25 0 a12.5 12.5 0 1 0 -25 0zM1062.5 775 a12.5 12.5 0 1 0 25 0 a12.5 12.5 0 1 0 -25 0z"
        fill="rgba(0, 0, 0, 1)"></path>
      <path d="M1425 575L1425 525L1375 475L1325 475L1275 525L1275 575L1375 675" stroke-width="8.33"
        stroke="rgba(0, 0, 0, 1)"></path>
      <path
        d="M1412.5 575 a12.5 12.5 0 1 0 25 0 a12.5 12.5 0 1 0 -25 0zM1362.5 675 a12.5 12.5 0 1 0 25 0 a12.5 12.5 0 1 0 -25 0z"
        fill="rgba(0, 0, 0, 1)"></path>
      <path d="M575 75L625 25L675 25" stroke-width="8.33" stroke="rgba(0, 0, 0, 1)"></path>
      <path
        d="M562.5 75 a12.5 12.5 0 1 0 25 0 a12.5 12.5 0 1 0 -25 0zM662.5 25 a12.5 12.5 0 1 0 25 0 a12.5 12.5 0 1 0 -25 0z"
        fill="rgba(0, 0, 0, 1)"></path>
      <path d="M1825 575L1875 525L1875 425" stroke-width="8.33" stroke="rgba(0, 0, 0, 1)"></path>
      <path
        d="M1812.5 575 a12.5 12.5 0 1 0 25 0 a12.5 12.5 0 1 0 -25 0zM1862.5 425 a12.5 12.5 0 1 0 25 0 a12.5 12.5 0 1 0 -25 0z"
        fill="rgba(0, 0, 0, 1)"></path>
      <path d="M225 175L175 225L75 225L25 275L25 325" stroke-width="8.33" stroke="rgba(0, 0, 0, 1)"></path>
      <path
        d="M212.5 175 a12.5 12.5 0 1 0 25 0 a12.5 12.5 0 1 0 -25 0zM12.5 325 a12.5 12.5 0 1 0 25 0 a12.5 12.5 0 1 0 -25 0z"
        fill="rgba(0, 0, 0, 1)"></path>
      <path d="M1575 275L1625 225L1625 175" stroke-width="8.33" stroke="rgba(0, 0, 0, 1)"></path>
      <path
        d="M1562.5 275 a12.5 12.5 0 1 0 25 0 a12.5 12.5 0 1 0 -25 0zM1612.5 175 a12.5 12.5 0 1 0 25 0 a12.5 12.5 0 1 0 -25 0z"
        fill="rgba(0, 0, 0, 1)"></path>
    </g>
  </g>
  <defs>
    <mask id="SvgjsMask2998">
      <rect width="1920" height="1080" fill="#ffffff"></rect>
    </mask>
    <linearGradient x1="10.94%" y1="119.44%" x2="89.06%" y2="-19.44%" gradientUnits="userSpaceOnUse"
      id="SvgjsLinearGradient2999">
      <stop stop-color="rgba(66, 0, 96, 1)" offset="0"></stop>
      <stop stop-color="rgba(0, 0, 0, 1)" offset="1"></stop>
    </linearGradient>
    <mask id="SvgjsMask3000">
      <rect width="1920" height="1080" fill="white"></rect>
      <path
        d="M768.75 975 a6.25 6.25 0 1 0 12.5 0 a6.25 6.25 0 1 0 -12.5 0zM1718.75 25 a6.25 6.25 0 1 0 12.5 0 a6.25 6.25 0 1 0 -12.5 0z"
        fill="black"></path>
      <path
        d="M868.75 125 a6.25 6.25 0 1 0 12.5 0 a6.25 6.25 0 1 0 -12.5 0zM868.75 25 a6.25 6.25 0 1 0 12.5 0 a6.25 6.25 0 1 0 -12.5 0z"
        fill="black"></path>
      <path
        d="M618.75 1025 a6.25 6.25 0 1 0 12.5 0 a6.25 6.25 0 1 0 -12.5 0zM1568.75 1025 a6.25 6.25 0 1 0 12.5 0 a6.25 6.25 0 1 0 -12.5 0z"
        fill="black"></path>
      <path
        d="M618.75 75 a6.25 6.25 0 1 0 12.5 0 a6.25 6.25 0 1 0 -12.5 0zM118.75 1025 a6.25 6.25 0 1 0 12.5 0 a6.25 6.25 0 1 0 -12.5 0z"
        fill="black"></path>
      <path
        d="M668.75 375 a6.25 6.25 0 1 0 12.5 0 a6.25 6.25 0 1 0 -12.5 0zM68.75 675 a6.25 6.25 0 1 0 12.5 0 a6.25 6.25 0 1 0 -12.5 0z"
        fill="black"></path>
      <path
        d="M1818.75 475 a6.25 6.25 0 1 0 12.5 0 a6.25 6.25 0 1 0 -12.5 0zM1918.75 25 a6.25 6.25 0 1 0 12.5 0 a6.25 6.25 0 1 0 -12.5 0z"
        fill="black"></path>
      <path
        d="M1118.75 975 a6.25 6.25 0 1 0 12.5 0 a6.25 6.25 0 1 0 -12.5 0zM818.75 975 a6.25 6.25 0 1 0 12.5 0 a6.25 6.25 0 1 0 -12.5 0z"
        fill="black"></path>
      <path
        d="M1518.75 125 a6.25 6.25 0 1 0 12.5 0 a6.25 6.25 0 1 0 -12.5 0zM918.75 25 a6.25 6.25 0 1 0 12.5 0 a6.25 6.25 0 1 0 -12.5 0z"
        fill="black"></path>
      <path
        d="M218.75 1075 a6.25 6.25 0 1 0 12.5 0 a6.25 6.25 0 1 0 -12.5 0zM1168.75 475 a6.25 6.25 0 1 0 12.5 0 a6.25 6.25 0 1 0 -12.5 0z"
        fill="black"></path>
      <path
        d="M1618.75 675 a6.25 6.25 0 1 0 12.5 0 a6.25 6.25 0 1 0 -12.5 0zM1368.75 425 a6.25 6.25 0 1 0 12.5 0 a6.25 6.25 0 1 0 -12.5 0z"
        fill="black"></path>
      <path
        d="M18.75 1025 a6.25 6.25 0 1 0 12.5 0 a6.25 6.25 0 1 0 -12.5 0zM818.75 275 a6.25 6.25 0 1 0 12.5 0 a6.25 6.25 0 1 0 -12.5 0z"
        fill="black"></path>
      <path
        d="M1618.75 375 a6.25 6.25 0 1 0 12.5 0 a6.25 6.25 0 1 0 -12.5 0zM1918.75 1075 a6.25 6.25 0 1 0 12.5 0 a6.25 6.25 0 1 0 -12.5 0z"
        fill="black"></path>
      <path
        d="M1318.75 175 a6.25 6.25 0 1 0 12.5 0 a6.25 6.25 0 1 0 -12.5 0zM1318.75 75 a6.25 6.25 0 1 0 12.5 0 a6.25 6.25 0 1 0 -12.5 0z"
        fill="black"></path>
      <path
        d="M468.75 125 a6.25 6.25 0 1 0 12.5 0 a6.25 6.25 0 1 0 -12.5 0zM18.75 625 a6.25 6.25 0 1 0 12.5 0 a6.25 6.25 0 1 0 -12.5 0z"
        fill="black"></path>
      <path
        d="M1468.75 775 a6.25 6.25 0 1 0 12.5 0 a6.25 6.25 0 1 0 -12.5 0zM1868.75 1075 a6.25 6.25 0 1 0 12.5 0 a6.25 6.25 0 1 0 -12.5 0z"
        fill="black"></path>
      <path
        d="M1668.75 1025 a6.25 6.25 0 1 0 12.5 0 a6.25 6.25 0 1 0 -12.5 0zM718.75 1075 a6.25 6.25 0 1 0 12.5 0 a6.25 6.25 0 1 0 -12.5 0z"
        fill="black"></path>
      <path
        d="M418.75 525 a6.25 6.25 0 1 0 12.5 0 a6.25 6.25 0 1 0 -12.5 0zM818.75 25 a6.25 6.25 0 1 0 12.5 0 a6.25 6.25 0 1 0 -12.5 0z"
        fill="black"></path>
      <path
        d="M868.75 275 a6.25 6.25 0 1 0 12.5 0 a6.25 6.25 0 1 0 -12.5 0zM468.75 775 a6.25 6.25 0 1 0 12.5 0 a6.25 6.25 0 1 0 -12.5 0z"
        fill="black"></path>
      <path
        d="M1318.75 675 a6.25 6.25 0 1 0 12.5 0 a6.25 6.25 0 1 0 -12.5 0zM1218.75 575 a6.25 6.25 0 1 0 12.5 0 a6.25 6.25 0 1 0 -12.5 0z"
        fill="black"></path>
      <path
        d="M218.75 525 a6.25 6.25 0 1 0 12.5 0 a6.25 6.25 0 1 0 -12.5 0zM418.75 575 a6.25 6.25 0 1 0 12.5 0 a6.25 6.25 0 1 0 -12.5 0z"
        fill="black"></path>
      <path
        d="M1368.75 325 a6.25 6.25 0 1 0 12.5 0 a6.25 6.25 0 1 0 -12.5 0zM1518.75 175 a6.25 6.25 0 1 0 12.5 0 a6.25 6.25 0 1 0 -12.5 0z"
        fill="black"></path>
      <path
        d="M1668.75 325 a6.25 6.25 0 1 0 12.5 0 a6.25 6.25 0 1 0 -12.5 0zM1918.75 875 a6.25 6.25 0 1 0 12.5 0 a6.25 6.25 0 1 0 -12.5 0z"
        fill="black"></path>
      <path
        d="M668.75 475 a6.25 6.25 0 1 0 12.5 0 a6.25 6.25 0 1 0 -12.5 0zM468.75 725 a6.25 6.25 0 1 0 12.5 0 a6.25 6.25 0 1 0 -12.5 0z"
        fill="black"></path>
      <path
        d="M318.75 475 a6.25 6.25 0 1 0 12.5 0 a6.25 6.25 0 1 0 -12.5 0zM368.75 575 a6.25 6.25 0 1 0 12.5 0 a6.25 6.25 0 1 0 -12.5 0z"
        fill="black"></path>
      <path
        d="M1618.75 925 a6.25 6.25 0 1 0 12.5 0 a6.25 6.25 0 1 0 -12.5 0zM868.75 925 a6.25 6.25 0 1 0 12.5 0 a6.25 6.25 0 1 0 -12.5 0z"
        fill="black"></path>
      <path
        d="M1768.75 975 a6.25 6.25 0 1 0 12.5 0 a6.25 6.25 0 1 0 -12.5 0zM1768.75 1075 a6.25 6.25 0 1 0 12.5 0 a6.25 6.25 0 1 0 -12.5 0z"
        fill="black"></path>
      <path
        d="M1268.75 225 a6.25 6.25 0 1 0 12.5 0 a6.25 6.25 0 1 0 -12.5 0zM1368.75 75 a6.25 6.25 0 1 0 12.5 0 a6.25 6.25 0 1 0 -12.5 0z"
        fill="black"></path>
      <path
        d="M1918.75 275 a6.25 6.25 0 1 0 12.5 0 a6.25 6.25 0 1 0 -12.5 0zM1918.75 225 a6.25 6.25 0 1 0 12.5 0 a6.25 6.25 0 1 0 -12.5 0z"
        fill="black"></path>
      <path
        d="M468.75 25 a6.25 6.25 0 1 0 12.5 0 a6.25 6.25 0 1 0 -12.5 0zM18.75 575 a6.25 6.25 0 1 0 12.5 0 a6.25 6.25 0 1 0 -12.5 0z"
        fill="black"></path>
      <path
        d="M818.75 475 a6.25 6.25 0 1 0 12.5 0 a6.25 6.25 0 1 0 -12.5 0zM918.75 375 a6.25 6.25 0 1 0 12.5 0 a6.25 6.25 0 1 0 -12.5 0z"
        fill="black"></path>
      <path
        d="M268.75 925 a6.25 6.25 0 1 0 12.5 0 a6.25 6.25 0 1 0 -12.5 0zM168.75 1025 a6.25 6.25 0 1 0 12.5 0 a6.25 6.25 0 1 0 -12.5 0z"
        fill="black"></path>
      <path
        d="M1168.75 975 a6.25 6.25 0 1 0 12.5 0 a6.25 6.25 0 1 0 -12.5 0zM918.75 925 a6.25 6.25 0 1 0 12.5 0 a6.25 6.25 0 1 0 -12.5 0z"
        fill="black"></path>
      <path
        d="M1218.75 125 a6.25 6.25 0 1 0 12.5 0 a6.25 6.25 0 1 0 -12.5 0zM718.75 75 a6.25 6.25 0 1 0 12.5 0 a6.25 6.25 0 1 0 -12.5 0z"
        fill="black"></path>
      <path
        d="M1118.75 275 a6.25 6.25 0 1 0 12.5 0 a6.25 6.25 0 1 0 -12.5 0zM1268.75 425 a6.25 6.25 0 1 0 12.5 0 a6.25 6.25 0 1 0 -12.5 0z"
        fill="black"></path>
      <path
        d="M768.75 375 a6.25 6.25 0 1 0 12.5 0 a6.25 6.25 0 1 0 -12.5 0zM868.75 325 a6.25 6.25 0 1 0 12.5 0 a6.25 6.25 0 1 0 -12.5 0z"
        fill="black"></path>
      <path
        d="M1518.75 925 a6.25 6.25 0 1 0 12.5 0 a6.25 6.25 0 1 0 -12.5 0zM1168.75 925 a6.25 6.25 0 1 0 12.5 0 a6.25 6.25 0 1 0 -12.5 0z"
        fill="black"></path>
      <path
        d="M318.75 75 a6.25 6.25 0 1 0 12.5 0 a6.25 6.25 0 1 0 -12.5 0zM418.75 25 a6.25 6.25 0 1 0 12.5 0 a6.25 6.25 0 1 0 -12.5 0z"
        fill="black"></path>
      <path
        d="M1468.75 625 a6.25 6.25 0 1 0 12.5 0 a6.25 6.25 0 1 0 -12.5 0zM968.75 825 a6.25 6.25 0 1 0 12.5 0 a6.25 6.25 0 1 0 -12.5 0z"
        fill="black"></path>
      <path
        d="M1568.75 425 a6.25 6.25 0 1 0 12.5 0 a6.25 6.25 0 1 0 -12.5 0zM1468.75 375 a6.25 6.25 0 1 0 12.5 0 a6.25 6.25 0 1 0 -12.5 0z"
        fill="black"></path>
      <path
        d="M718.75 175 a6.25 6.25 0 1 0 12.5 0 a6.25 6.25 0 1 0 -12.5 0zM818.75 225 a6.25 6.25 0 1 0 12.5 0 a6.25 6.25 0 1 0 -12.5 0z"
        fill="black"></path>
      <path
        d="M1668.75 525 a6.25 6.25 0 1 0 12.5 0 a6.25 6.25 0 1 0 -12.5 0zM1668.75 375 a6.25 6.25 0 1 0 12.5 0 a6.25 6.25 0 1 0 -12.5 0z"
        fill="black"></path>
      <path
        d="M18.75 175 a6.25 6.25 0 1 0 12.5 0 a6.25 6.25 0 1 0 -12.5 0zM268.75 175 a6.25 6.25 0 1 0 12.5 0 a6.25 6.25 0 1 0 -12.5 0z"
        fill="black"></path>
      <path
        d="M318.75 225 a6.25 6.25 0 1 0 12.5 0 a6.25 6.25 0 1 0 -12.5 0zM68.75 525 a6.25 6.25 0 1 0 12.5 0 a6.25 6.25 0 1 0 -12.5 0z"
        fill="black"></path>
      <path
        d="M718.75 675 a6.25 6.25 0 1 0 12.5 0 a6.25 6.25 0 1 0 -12.5 0zM518.75 675 a6.25 6.25 0 1 0 12.5 0 a6.25 6.25 0 1 0 -12.5 0z"
        fill="black"></path>
      <path
        d="M1168.75 225 a6.25 6.25 0 1 0 12.5 0 a6.25 6.25 0 1 0 -12.5 0zM1268.75 75 a6.25 6.25 0 1 0 12.5 0 a6.25 6.25 0 1 0 -12.5 0z"
        fill="black"></path>
      <path
        d="M468.75 325 a6.25 6.25 0 1 0 12.5 0 a6.25 6.25 0 1 0 -12.5 0zM318.75 425 a6.25 6.25 0 1 0 12.5 0 a6.25 6.25 0 1 0 -12.5 0z"
        fill="black"></path>
      <path
        d="M68.75 25 a6.25 6.25 0 1 0 12.5 0 a6.25 6.25 0 1 0 -12.5 0zM318.75 25 a6.25 6.25 0 1 0 12.5 0 a6.25 6.25 0 1 0 -12.5 0z"
        fill="black"></path>
      <path
        d="M768.75 575 a6.25 6.25 0 1 0 12.5 0 a6.25 6.25 0 1 0 -12.5 0zM768.75 725 a6.25 6.25 0 1 0 12.5 0 a6.25 6.25 0 1 0 -12.5 0z"
        fill="black"></path>
      <path
        d="M1318.75 725 a6.25 6.25 0 1 0 12.5 0 a6.25 6.25 0 1 0 -12.5 0zM1018.75 775 a6.25 6.25 0 1 0 12.5 0 a6.25 6.25 0 1 0 -12.5 0z"
        fill="black"></path>
      <path
        d="M218.75 825 a6.25 6.25 0 1 0 12.5 0 a6.25 6.25 0 1 0 -12.5 0zM368.75 725 a6.25 6.25 0 1 0 12.5 0 a6.25 6.25 0 1 0 -12.5 0z"
        fill="black"></path>
      <path
        d="M1768.75 175 a6.25 6.25 0 1 0 12.5 0 a6.25 6.25 0 1 0 -12.5 0zM1868.75 225 a6.25 6.25 0 1 0 12.5 0 a6.25 6.25 0 1 0 -12.5 0z"
        fill="black"></path>
      <path
        d="M1018.75 175 a6.25 6.25 0 1 0 12.5 0 a6.25 6.25 0 1 0 -12.5 0zM918.75 225 a6.25 6.25 0 1 0 12.5 0 a6.25 6.25 0 1 0 -12.5 0z"
        fill="black"></path>
      <path
        d="M568.75 825 a6.25 6.25 0 1 0 12.5 0 a6.25 6.25 0 1 0 -12.5 0zM268.75 1025 a6.25 6.25 0 1 0 12.5 0 a6.25 6.25 0 1 0 -12.5 0z"
        fill="black"></path>
      <path
        d="M1168.75 275 a6.25 6.25 0 1 0 12.5 0 a6.25 6.25 0 1 0 -12.5 0zM1318.75 375 a6.25 6.25 0 1 0 12.5 0 a6.25 6.25 0 1 0 -12.5 0z"
        fill="black"></path>
      <path
        d="M1068.75 75 a6.25 6.25 0 1 0 12.5 0 a6.25 6.25 0 1 0 -12.5 0zM968.75 175 a6.25 6.25 0 1 0 12.5 0 a6.25 6.25 0 1 0 -12.5 0z"
        fill="black"></path>
      <path
        d="M1268.75 325 a6.25 6.25 0 1 0 12.5 0 a6.25 6.25 0 1 0 -12.5 0zM1218.75 225 a6.25 6.25 0 1 0 12.5 0 a6.25 6.25 0 1 0 -12.5 0z"
        fill="black"></path>
      <path
        d="M968.75 425 a6.25 6.25 0 1 0 12.5 0 a6.25 6.25 0 1 0 -12.5 0zM818.75 725 a6.25 6.25 0 1 0 12.5 0 a6.25 6.25 0 1 0 -12.5 0z"
        fill="black"></path>
      <path
        d="M468.75 1075 a6.25 6.25 0 1 0 12.5 0 a6.25 6.25 0 1 0 -12.5 0zM818.75 875 a6.25 6.25 0 1 0 12.5 0 a6.25 6.25 0 1 0 -12.5 0z"
        fill="black"></path>
      <path
        d="M1118.75 325 a6.25 6.25 0 1 0 12.5 0 a6.25 6.25 0 1 0 -12.5 0zM1218.75 425 a6.25 6.25 0 1 0 12.5 0 a6.25 6.25 0 1 0 -12.5 0z"
        fill="black"></path>
      <path
        d="M368.75 825 a6.25 6.25 0 1 0 12.5 0 a6.25 6.25 0 1 0 -12.5 0zM118.75 975 a6.25 6.25 0 1 0 12.5 0 a6.25 6.25 0 1 0 -12.5 0z"
        fill="black"></path>
      <path
        d="M218.75 225 a6.25 6.25 0 1 0 12.5 0 a6.25 6.25 0 1 0 -12.5 0zM18.75 425 a6.25 6.25 0 1 0 12.5 0 a6.25 6.25 0 1 0 -12.5 0z"
        fill="black"></path>
      <path
        d="M1418.75 825 a6.25 6.25 0 1 0 12.5 0 a6.25 6.25 0 1 0 -12.5 0zM1768.75 875 a6.25 6.25 0 1 0 12.5 0 a6.25 6.25 0 1 0 -12.5 0z"
        fill="black"></path>
      <path
        d="M668.75 525 a6.25 6.25 0 1 0 12.5 0 a6.25 6.25 0 1 0 -12.5 0zM568.75 625 a6.25 6.25 0 1 0 12.5 0 a6.25 6.25 0 1 0 -12.5 0z"
        fill="black"></path>
      <path
        d="M1718.75 1025 a6.25 6.25 0 1 0 12.5 0 a6.25 6.25 0 1 0 -12.5 0zM1718.75 875 a6.25 6.25 0 1 0 12.5 0 a6.25 6.25 0 1 0 -12.5 0z"
        fill="black"></path>
      <path
        d="M168.75 875 a6.25 6.25 0 1 0 12.5 0 a6.25 6.25 0 1 0 -12.5 0zM68.75 725 a6.25 6.25 0 1 0 12.5 0 a6.25 6.25 0 1 0 -12.5 0z"
        fill="black"></path>
      <path
        d="M1918.75 675 a6.25 6.25 0 1 0 12.5 0 a6.25 6.25 0 1 0 -12.5 0zM1918.75 325 a6.25 6.25 0 1 0 12.5 0 a6.25 6.25 0 1 0 -12.5 0z"
        fill="black"></path>
      <path
        d="M1568.75 25 a6.25 6.25 0 1 0 12.5 0 a6.25 6.25 0 1 0 -12.5 0zM1568.75 125 a6.25 6.25 0 1 0 12.5 0 a6.25 6.25 0 1 0 -12.5 0z"
        fill="black"></path>
      <path
        d="M168.75 775 a6.25 6.25 0 1 0 12.5 0 a6.25 6.25 0 1 0 -12.5 0zM268.75 725 a6.25 6.25 0 1 0 12.5 0 a6.25 6.25 0 1 0 -12.5 0z"
        fill="black"></path>
      <path
        d="M1668.75 275 a6.25 6.25 0 1 0 12.5 0 a6.25 6.25 0 1 0 -12.5 0zM1518.75 275 a6.25 6.25 0 1 0 12.5 0 a6.25 6.25 0 1 0 -12.5 0z"
        fill="black"></path>
      <path
        d="M918.75 475 a6.25 6.25 0 1 0 12.5 0 a6.25 6.25 0 1 0 -12.5 0zM818.75 675 a6.25 6.25 0 1 0 12.5 0 a6.25 6.25 0 1 0 -12.5 0z"
        fill="black"></path>
      <path
        d="M1868.75 675 a6.25 6.25 0 1 0 12.5 0 a6.25 6.25 0 1 0 -12.5 0zM1768.75 475 a6.25 6.25 0 1 0 12.5 0 a6.25 6.25 0 1 0 -12.5 0z"
        fill="black"></path>
      <path
        d="M1118.75 125 a6.25 6.25 0 1 0 12.5 0 a6.25 6.25 0 1 0 -12.5 0zM968.75 275 a6.25 6.25 0 1 0 12.5 0 a6.25 6.25 0 1 0 -12.5 0z"
        fill="black"></path>
      <path
        d="M518.75 825 a6.25 6.25 0 1 0 12.5 0 a6.25 6.25 0 1 0 -12.5 0zM418.75 925 a6.25 6.25 0 1 0 12.5 0 a6.25 6.25 0 1 0 -12.5 0z"
        fill="black"></path>
      <path
        d="M868.75 625 a6.25 6.25 0 1 0 12.5 0 a6.25 6.25 0 1 0 -12.5 0zM918.75 525 a6.25 6.25 0 1 0 12.5 0 a6.25 6.25 0 1 0 -12.5 0z"
        fill="black"></path>
      <path
        d="M1368.75 825 a6.25 6.25 0 1 0 12.5 0 a6.25 6.25 0 1 0 -12.5 0zM1568.75 675 a6.25 6.25 0 1 0 12.5 0 a6.25 6.25 0 1 0 -12.5 0z"
        fill="black"></path>
      <path
        d="M118.75 275 a6.25 6.25 0 1 0 12.5 0 a6.25 6.25 0 1 0 -12.5 0zM18.75 375 a6.25 6.25 0 1 0 12.5 0 a6.25 6.25 0 1 0 -12.5 0z"
        fill="black"></path>
      <path
        d="M1918.75 725 a6.25 6.25 0 1 0 12.5 0 a6.25 6.25 0 1 0 -12.5 0zM1918.75 825 a6.25 6.25 0 1 0 12.5 0 a6.25 6.25 0 1 0 -12.5 0z"
        fill="black"></path>
      <path
        d="M1168.75 675 a6.25 6.25 0 1 0 12.5 0 a6.25 6.25 0 1 0 -12.5 0zM1068.75 775 a6.25 6.25 0 1 0 12.5 0 a6.25 6.25 0 1 0 -12.5 0z"
        fill="black"></path>
      <path
        d="M1418.75 575 a6.25 6.25 0 1 0 12.5 0 a6.25 6.25 0 1 0 -12.5 0zM1368.75 675 a6.25 6.25 0 1 0 12.5 0 a6.25 6.25 0 1 0 -12.5 0z"
        fill="black"></path>
      <path
        d="M568.75 75 a6.25 6.25 0 1 0 12.5 0 a6.25 6.25 0 1 0 -12.5 0zM668.75 25 a6.25 6.25 0 1 0 12.5 0 a6.25 6.25 0 1 0 -12.5 0z"
        fill="black"></path>
      <path
        d="M1818.75 575 a6.25 6.25 0 1 0 12.5 0 a6.25 6.25 0 1 0 -12.5 0zM1868.75 425 a6.25 6.25 0 1 0 12.5 0 a6.25 6.25 0 1 0 -12.5 0z"
        fill="black"></path>
      <path
        d="M218.75 175 a6.25 6.25 0 1 0 12.5 0 a6.25 6.25 0 1 0 -12.5 0zM18.75 325 a6.25 6.25 0 1 0 12.5 0 a6.25 6.25 0 1 0 -12.5 0z"
        fill="black"></path>
      <path
        d="M1568.75 275 a6.25 6.25 0 1 0 12.5 0 a6.25 6.25 0 1 0 -12.5 0zM1618.75 175 a6.25 6.25 0 1 0 12.5 0 a6.25 6.25 0 1 0 -12.5 0z"
        fill="black"></path>
    </mask>
  </defs>
</svg>